<?xml version="1.0" standalone="no"?>
<!DOCTYPE svg PUBLIC "-//W3C//DTD SVG 20010904//EN"
 "http://www.w3.org/TR/2001/REC-SVG-20010904/DTD/svg10.dtd">
<svg version="1.0" xmlns="http://www.w3.org/2000/svg"
 width="500.000000pt" height="500.000000pt" viewBox="0 0 500.000000 500.000000"
 preserveAspectRatio="xMidYMid meet">

<g transform="translate(0.000000,500.000000) scale(0.100000,-0.100000)"
fill="#000000" stroke="none">
<path d="M2423 3118 c-867 -868 -1227 -1234 -1238 -1260 -22 -53 -20 -160 4
-206 60 -116 187 -166 306 -121 57 21 82 44 445 411 l385 389 55 -50 c30 -28
58 -51 62 -51 22 0 572 574 602 628 5 10 28 37 51 62 23 25 68 81 100 125 32
44 83 112 112 151 29 40 53 75 53 78 0 4 24 42 53 85 30 43 86 140 124 217
121 240 167 398 167 574 0 111 -17 182 -44 188 -9 1 -527 -510 -1237 -1220z
m1239 1040 c0 -151 -42 -297 -150 -528 -47 -101 -186 -332 -246 -410 -24 -30
-54 -73 -68 -95 -34 -55 -182 -233 -352 -424 -70 -78 -386 -404 -402 -414 -7
-4 -19 4 -28 18 -16 25 -16 25 121 164 195 197 434 461 505 558 13 17 50 66
83 108 33 43 65 85 70 94 6 9 36 53 67 98 56 80 69 101 171 288 89 163 164
398 174 545 4 55 11 91 21 103 26 30 34 4 34 -105z m-1509 -1652 c76 -74 137
-138 137 -142 0 -4 -12 -21 -27 -36 l-27 -29 -143 143 -143 142 27 28 c15 15
30 28 33 28 4 0 68 -60 143 -134z m-179 -182 c30 -30 13 -74 -29 -74 -42 0
-59 44 -29 74 8 9 22 16 29 16 7 0 21 -7 29 -16z m-266 -266 c7 -7 12 -21 12
-33 0 -47 -62 -63 -81 -21 -22 47 33 90 69 54z m-260 -270 c17 -17 15 -38 -5
-60 -20 -22 -41 -23 -65 -1 -34 31 -16 73 32 73 14 0 31 -5 38 -12z"/>
<path d="M1390 3333 l0 -857 53 50 c94 89 230 217 347 324 62 58 136 126 164
152 28 26 79 73 114 104 l62 57 0 514 0 513 -370 0 -370 0 0 -857z"/>
<path d="M3000 2498 c-57 -51 -238 -218 -324 -299 -45 -43 -98 -92 -119 -111
l-39 -34 67 -109 c37 -60 84 -135 106 -166 21 -32 39 -61 39 -65 0 -5 20 -37
43 -73 91 -138 117 -178 117 -184 0 -3 33 -57 73 -119 41 -62 76 -118 78 -124
4 -10 73 -121 242 -387 42 -67 77 -125 77 -129 0 -5 189 -8 420 -8 231 0 420
3 420 6 0 3 -13 25 -30 49 -16 24 -30 47 -30 51 0 4 -29 50 -64 103 -35 53
-87 134 -116 181 -51 84 -104 168 -210 335 -30 48 -72 116 -94 153 -21 37 -42
69 -46 72 -4 3 -37 53 -72 111 -36 58 -91 146 -122 195 -100 155 -201 314
-211 332 -5 9 -37 60 -71 112 -34 52 -66 105 -73 118 -15 28 -19 28 -61 -10z"/>
<path d="M2108 1673 c-9 -10 -62 -61 -119 -113 -57 -52 -171 -158 -253 -235
-83 -77 -194 -180 -247 -230 l-97 -90 -1 -157 -1 -158 370 0 370 0 0 500 c0
275 -1 500 -3 500 -1 0 -10 -8 -19 -17z"/>
</g>
</svg>
