<?xml version="1.0" standalone="no"?>
<!DOCTYPE svg PUBLIC "-//W3C//DTD SVG 20010904//EN"
 "http://www.w3.org/TR/2001/REC-SVG-20010904/DTD/svg10.dtd">
<svg version="1.0" xmlns="http://www.w3.org/2000/svg"
 width="500.000000pt" height="500.000000pt" viewBox="0 0 500.000000 500.000000"
 preserveAspectRatio="xMidYMid meet">

<g transform="translate(0.000000,500.000000) scale(0.100000,-0.100000)"
fill="#000000" stroke="none">
<path d="M2399 2873 c-814 -815 -777 -774 -763 -864 8 -48 53 -95 106 -111 78
-23 97 -10 358 253 131 131 241 239 246 239 4 0 22 -14 39 -30 l31 -30 145
149 c187 193 329 356 329 378 0 5 9 18 21 29 34 31 122 171 182 289 63 124 94
216 103 308 7 67 -9 147 -29 147 -7 0 -352 -341 -768 -757z m768 626 c-12
-148 -100 -347 -243 -552 -47 -66 -98 -135 -112 -152 -15 -18 -59 -70 -98
-116 -39 -46 -122 -135 -184 -197 -90 -90 -115 -111 -126 -101 -11 9 12 38
122 153 118 122 364 412 364 429 0 3 25 42 55 87 98 145 173 328 182 445 6 71
17 100 36 88 6 -4 7 -35 4 -84z m-923 -1001 c72 -78 75 -82 59 -100 -16 -18
-20 -15 -105 69 -67 67 -85 90 -76 100 21 26 47 12 122 -69z m-114 -122 c0
-28 -24 -41 -39 -22 -15 18 -3 46 20 46 13 0 19 -7 19 -24z m-165 -156 c8 -24
-1 -40 -21 -40 -17 0 -28 24 -20 45 8 22 34 18 41 -5z m-162 -164 c3 -8 0 -21
-6 -30 -11 -15 -15 -15 -31 -3 -12 9 -17 20 -13 31 8 20 43 21 50 2z"/>
<path d="M1770 3014 l0 -526 69 64 c38 35 141 131 229 213 l161 150 1 313 0
312 -230 0 -230 0 0 -526z"/>
<path d="M2720 2467 c-30 -29 -101 -95 -158 -148 l-102 -96 56 -84 c31 -46 59
-91 62 -99 3 -8 33 -58 67 -110 34 -52 79 -124 100 -160 21 -36 60 -98 87
-138 27 -39 52 -80 55 -90 4 -9 27 -47 51 -84 l45 -68 260 0 259 0 -15 23 c-8
13 -39 61 -69 108 -30 46 -86 133 -124 192 -38 59 -81 130 -95 157 -14 26 -42
70 -61 97 -19 26 -57 84 -83 128 -26 44 -74 119 -106 167 -33 49 -59 91 -59
94 0 11 -102 164 -109 164 -3 0 -31 -24 -61 -53z"/>
<path d="M2180 1962 c-25 -20 -66 -57 -91 -82 -25 -25 -92 -88 -149 -140 -191
-174 -170 -143 -170 -254 l0 -96 230 0 230 0 0 305 c0 168 -1 305 -2 305 -2
-1 -23 -17 -48 -38z"/>
</g>
</svg>
